<?xml version="1.0" encoding="UTF-8" standalone="no"?>
<!-- Created with Inkscape (http://www.inkscape.org/) -->
<svg id="svg5918" xmlns:rdf="http://www.w3.org/1999/02/22-rdf-syntax-ns#" xmlns="http://www.w3.org/2000/svg" height="16" viewBox="0 0 16 15.999999" width="16" version="1.1" xmlns:cc="http://creativecommons.org/ns#" xmlns:dc="http://purl.org/dc/elements/1.1/">
 <metadata id="metadata5923">
  <rdf:RDF>
   <cc:Work rdf:about="">
    <dc:format>image/svg+xml</dc:format>
    <dc:type rdf:resource="http://purl.org/dc/dcmitype/StillImage"/>
    <dc:title/>
   </cc:Work>
  </rdf:RDF>
 </metadata>
 <g id="layer1" transform="translate(-182.94 -560.72)">
  <g id="g5346" transform="translate(-769.06 404.36)">
   <g id="g4311" transform="matrix(.66667 0 0 .66667 877.33 -22.546)">
    <rect id="rect4313" style="color:#000000;enable-background:accumulate" height="24" width="24" y="268.36" x="112" fill="none"/>
    <rect id="rect4315" style="color:#000000;enable-background:accumulate" height="24" width="24" y="268.36" x="112" fill="none"/>
    <rect id="rect4317" style="color:#000000;enable-background:accumulate" height="1.5" width="6" y="284.86" x="130" fill="#808080"/>
    <rect id="rect4319" style="color:#000000;enable-background:accumulate" height="1.5" width="9" y="287.86" x="127" fill="#808080"/>
    <rect id="rect4321" style="color:#000000;enable-background:accumulate" height="1.5" width="12" y="290.86" x="124" fill="#808080"/>
    <path id="path4323" style="color:#000000;enable-background:accumulate" d="m130.26 268.38-14.461 14.72s-2.7409 4.3001-3.7805 9.2254c0.00057 0.00028 0.00065 0 0.001 0.003 0.00028 0 0.00015 0 0.001 0.003 0.00028 0-0.00037 0 0.00051 0.003 0.00028 0.00024 0.00036 0.003 0.001 0.003 4.9337-1.0396 9.2341-3.7805 9.2341-3.7805l14.72-14.461zm-13.33 15.851 3.2058 3.2057c-0.21573 0.12484-3.2563 2.2488-6.037 2.8348-0.00067 0-0.00029-0.003-0.00051-0.003-0.00053-0.003-0.00035-0.003-0.00053-0.003-0.00052-0.003-0.00034-0.003-0.00052-0.003-0.00052-0.003-0.00065-0.003-0.001-0.003 0.5852-2.7724 2.7063-5.8094 2.8338-6.0299z" fill="#808080"/>
    <path id="path4325" style="color:#000000;enable-background:accumulate" d="m114.73 287.86 1.8504 1.8503-3.0839 1.1497z" fill="#808080"/>
   </g>
  </g>
 </g>
</svg>
